<?xml version="1.0" encoding="iso-8859-1"?>
<!-- Generator: Adobe Illustrator 19.0.0, SVG Export Plug-In . SVG Version: 6.00 Build 0)  -->
<svg version="1.1" id="Capa_1" xmlns="http://www.w3.org/2000/svg" xmlns:xlink="http://www.w3.org/1999/xlink" x="0px" y="0px"
	 viewBox="0 0 469.333 469.333" style="enable-background:new 0 0 469.333 469.333;" xml:space="preserve">
<g>
	<g>
		<g>
			<path d="M312.417,267.167l-45.26,45.25c-4.146,4.156-4.146,10.927,0.01,15.083c4.156,4.177,10.927,4.156,15.083,0l45.25-45.25
				c4.156-4.167,4.156-10.927,0-15.094C323.354,263.01,316.562,263,312.417,267.167z"/>
			<path d="M451.125,222.708L250.292,21.875C236.187,7.771,217.437,0,197.49,0H42.667C19.135,0,0,19.135,0,42.667V197.49
				c0,19.948,7.771,38.698,21.875,52.802l200.833,200.833c11.573,11.573,27.594,18.208,43.958,18.208s32.385-6.635,43.958-18.208
				l140.5-140.5c11.573-11.573,18.208-27.594,18.208-43.958S462.698,234.281,451.125,222.708z M85.333,128
				c-23.531,0-42.667-19.135-42.667-42.667s19.135-42.667,42.667-42.667S128,61.802,128,85.333S108.865,128,85.333,128z
				 M131.396,221.906c-6.042-6.042-9.375-14.083-9.375-22.625c0-8.552,3.333-16.594,9.375-22.635
				c4.167-4.146,10.927-4.156,15.094,0.01c4.156,4.177,4.156,10.927-0.01,15.094c-2.021,2-3.125,4.677-3.125,7.531
				c0,2.844,1.115,5.521,3.125,7.542c4.052,4.021,11.063,4.042,15.073,0l7.552-7.542c4.156-4.167,4.156-10.927,0-15.094
				c-12.469-12.469-12.469-32.76-0.01-45.25l7.563-7.552c12.063-12.052,33.167-12.083,45.25,0.01
				c6.042,6.042,9.375,14.083,9.375,22.625c0,8.552-3.333,16.594-9.375,22.635c-4.167,4.146-10.927,4.156-15.094-0.01
				c-4.156-4.177-4.156-10.927,0.01-15.094c2.021-2.01,3.125-4.677,3.125-7.531c0-2.844-1.115-5.521-3.125-7.542
				c-4.052-4.031-11.083-4.031-15.073,0l-7.563,7.552c-4.156,4.146-4.156,10.917,0,15.073c12.479,12.479,12.479,32.781,0,45.26
				l-7.542,7.542c-6.031,6.042-14.073,9.375-22.625,9.375C145.479,231.281,137.437,227.948,131.396,221.906z M221.906,282.25
				c4.167,4.167,4.167,10.917,0,15.083c-2.083,2.083-4.813,3.125-7.542,3.125c-2.729,0-5.458-1.042-7.542-3.125l-30.167-30.177
				c-4.167-4.167-4.167-10.917,0-15.083l75.417-75.417c4.167-4.167,10.917-4.167,15.083,0l30.177,30.167
				c4.167,4.167,4.167,10.917,0,15.083c-4.167,4.167-10.917,4.167-15.083,0l-22.635-22.625l-22.625,22.625l15.083,15.083
				c4.167,4.167,4.167,10.917,0,15.083c-2.083,2.083-4.813,3.125-7.542,3.125c-2.729,0-5.458-1.042-7.542-3.125l-15.083-15.083
				l-22.625,22.625L221.906,282.25z M342.583,297.333l-45.25,45.25c-6.24,6.24-14.438,9.365-22.635,9.365
				c-8.188,0-16.385-3.125-22.625-9.365c-12.458-12.479-12.458-32.771-0.01-45.25l45.271-45.26c0,0,0,0,0-0.01
				c12.479-12.458,32.771-12.458,45.25,0C355.063,264.552,355.063,284.854,342.583,297.333z"/>
		</g>
	</g>
</g>
<g>
</g>
<g>
</g>
<g>
</g>
<g>
</g>
<g>
</g>
<g>
</g>
<g>
</g>
<g>
</g>
<g>
</g>
<g>
</g>
<g>
</g>
<g>
</g>
<g>
</g>
<g>
</g>
<g>
</g>
</svg>
